<?xml version="1.0" encoding="UTF-8" standalone="no"?>
<!DOCTYPE svg PUBLIC "-//W3C//DTD SVG 1.1//EN"
 "http://www.w3.org/Graphics/SVG/1.1/DTD/svg11.dtd">
<!-- Generated by graphviz version 2.38.0 (20140413.2041)
 -->
<!-- Title: cmd Pages: 1 -->
<svg width="1746pt" height="404pt"
 viewBox="0.00 0.00 1745.50 404.00" xmlns="http://www.w3.org/2000/svg" xmlns:xlink="http://www.w3.org/1999/xlink">
<g id="graph0" class="graph" transform="scale(1 1) rotate(0) translate(4 400)">
<title>cmd</title>
<polygon fill="white" stroke="none" points="-4,4 -4,-400 1741.5,-400 1741.5,4 -4,4"/>
<!-- cn -->
<g id="node1" class="node"><title>cn</title>
<ellipse fill="none" stroke="black" cx="1002.5" cy="-378" rx="27" ry="18"/>
<text text-anchor="middle" x="1002.5" y="-374.3" font-family="Microsoft Yahei" font-size="14.00">cn</text>
</g>
<!-- new -->
<g id="node2" class="node"><title>new</title>
<ellipse fill="none" stroke="black" cx="193.5" cy="-306" rx="29.4969" ry="18"/>
<text text-anchor="middle" x="193.5" y="-302.3" font-family="Microsoft Yahei" font-size="14.00">new</text>
</g>
<!-- cn&#45;&gt;new -->
<g id="edge1" class="edge"><title>cn&#45;&gt;new</title>
<path fill="none" stroke="black" d="M975.691,-374.799C889.1,-367.675 609.087,-344.517 377.5,-324 327.475,-319.568 269.826,-314.199 232.583,-310.697"/>
<polygon fill="black" stroke="black" points="232.462,-307.17 222.178,-309.717 231.806,-314.139 232.462,-307.17"/>
</g>
<!-- ls -->
<g id="node3" class="node"><title>ls</title>
<ellipse fill="none" stroke="black" cx="413.5" cy="-306" rx="27" ry="18"/>
<text text-anchor="middle" x="413.5" y="-302.3" font-family="Microsoft Yahei" font-size="14.00">ls</text>
</g>
<!-- cn&#45;&gt;ls -->
<g id="edge2" class="edge"><title>cn&#45;&gt;ls</title>
<path fill="none" stroke="black" d="M976.048,-373.856C881.379,-362.605 559.283,-324.326 450.066,-311.346"/>
<polygon fill="black" stroke="black" points="450.223,-307.84 439.879,-310.135 449.396,-314.791 450.223,-307.84"/>
</g>
<!-- del -->
<g id="node4" class="node"><title>del</title>
<ellipse fill="none" stroke="black" cx="627.5" cy="-306" rx="27" ry="18"/>
<text text-anchor="middle" x="627.5" y="-302.3" font-family="Microsoft Yahei" font-size="14.00">del</text>
</g>
<!-- cn&#45;&gt;del -->
<g id="edge3" class="edge"><title>cn&#45;&gt;del</title>
<path fill="none" stroke="black" d="M976.725,-372.189C911.296,-359.975 738.646,-327.747 663.405,-313.702"/>
<polygon fill="black" stroke="black" points="663.928,-310.24 653.456,-311.845 662.644,-317.121 663.928,-310.24"/>
</g>
<!-- get -->
<g id="node5" class="node"><title>get</title>
<ellipse fill="none" stroke="black" cx="873.5" cy="-306" rx="27" ry="18"/>
<text text-anchor="middle" x="873.5" y="-302.3" font-family="Microsoft Yahei" font-size="14.00">get</text>
</g>
<!-- cn&#45;&gt;get -->
<g id="edge4" class="edge"><title>cn&#45;&gt;get</title>
<path fill="none" stroke="black" d="M982.06,-365.908C960.735,-354.337 927.104,-336.087 902.924,-322.966"/>
<polygon fill="black" stroke="black" points="904.303,-319.733 893.845,-318.04 900.965,-325.886 904.303,-319.733"/>
</g>
<!-- edit -->
<g id="node6" class="node"><title>edit</title>
<ellipse fill="none" stroke="black" cx="1002.5" cy="-306" rx="27.8951" ry="18"/>
<text text-anchor="middle" x="1002.5" y="-302.3" font-family="Microsoft Yahei" font-size="14.00">edit</text>
</g>
<!-- cn&#45;&gt;edit -->
<g id="edge5" class="edge"><title>cn&#45;&gt;edit</title>
<path fill="none" stroke="black" d="M1002.5,-359.697C1002.5,-351.983 1002.5,-342.712 1002.5,-334.112"/>
<polygon fill="black" stroke="black" points="1006,-334.104 1002.5,-324.104 999,-334.104 1006,-334.104"/>
</g>
<!-- load -->
<g id="node7" class="node"><title>load</title>
<ellipse fill="none" stroke="black" cx="1185.5" cy="-306" rx="30.5947" ry="18"/>
<text text-anchor="middle" x="1185.5" y="-302.3" font-family="Microsoft Yahei" font-size="14.00">load</text>
</g>
<!-- cn&#45;&gt;load -->
<g id="edge6" class="edge"><title>cn&#45;&gt;load</title>
<path fill="none" stroke="black" d="M1025.31,-368.276C1056.84,-356.216 1114.01,-334.347 1150.84,-320.259"/>
<polygon fill="black" stroke="black" points="1152.56,-323.348 1160.65,-316.507 1150.06,-316.81 1152.56,-323.348"/>
</g>
<!-- media -->
<g id="node8" class="node"><title>media</title>
<ellipse fill="none" stroke="black" cx="1301.5" cy="-306" rx="38.1938" ry="18"/>
<text text-anchor="middle" x="1301.5" y="-302.3" font-family="Microsoft Yahei" font-size="14.00">media</text>
</g>
<!-- cn&#45;&gt;media -->
<g id="edge7" class="edge"><title>cn&#45;&gt;media</title>
<path fill="none" stroke="black" d="M1027.48,-371.152C1078.27,-359.262 1194.14,-332.135 1257.73,-317.247"/>
<polygon fill="black" stroke="black" points="1258.9,-320.567 1267.84,-314.88 1257.31,-313.751 1258.9,-320.567"/>
</g>
<!-- config -->
<g id="node9" class="node"><title>config</title>
<ellipse fill="none" stroke="black" cx="1454.5" cy="-306" rx="38.9931" ry="18"/>
<text text-anchor="middle" x="1454.5" y="-302.3" font-family="Microsoft Yahei" font-size="14.00">config</text>
</g>
<!-- cn&#45;&gt;config -->
<g id="edge8" class="edge"><title>cn&#45;&gt;config</title>
<path fill="none" stroke="black" d="M1028.55,-373.073C1086.22,-364.367 1229.03,-342.731 1348.5,-324 1368.08,-320.931 1389.67,-317.479 1408.24,-314.492"/>
<polygon fill="black" stroke="black" points="1408.89,-317.932 1418.21,-312.885 1407.78,-311.021 1408.89,-317.932"/>
</g>
<!-- help -->
<g id="node10" class="node"><title>help</title>
<ellipse fill="none" stroke="black" cx="1657.5" cy="-306" rx="30.5947" ry="18"/>
<text text-anchor="middle" x="1657.5" y="-302.3" font-family="Microsoft Yahei" font-size="14.00">help</text>
</g>
<!-- cn&#45;&gt;help -->
<g id="edge9" class="edge"><title>cn&#45;&gt;help</title>
<path fill="none" stroke="black" d="M1029.06,-374.219C1103.68,-366.398 1321.55,-343.514 1502.5,-324 1541.67,-319.776 1586.41,-314.86 1617.71,-311.404"/>
<polygon fill="black" stroke="black" points="1618.23,-314.868 1627.79,-310.291 1617.47,-307.91 1618.23,-314.868"/>
</g>
<!-- new_post -->
<g id="node28" class="node"><title>new_post</title>
<ellipse fill="none" stroke="black" cx="104.5" cy="-234" rx="47.3916" ry="18"/>
<text text-anchor="middle" x="104.5" y="-230.3" font-family="Microsoft Yahei" font-size="14.00">haha.txt</text>
</g>
<!-- new&#45;&gt;new_post -->
<g id="edge27" class="edge"><title>new&#45;&gt;new_post</title>
<path fill="none" stroke="black" d="M175.916,-291.17C163.466,-281.378 146.513,-268.044 132.249,-256.825"/>
<polygon fill="black" stroke="black" points="134.24,-253.938 124.216,-250.507 129.912,-259.44 134.24,-253.938"/>
</g>
<!-- ls_default -->
<g id="node11" class="node"><title>ls_default</title>
<polygon fill="none" stroke="black" points="368.5,-252 178.5,-252 178.5,-216 368.5,-216 368.5,-252"/>
<text text-anchor="middle" x="273.5" y="-230.3" font-family="Microsoft Yahei" font-size="14.00">列出博客列表，默认为10条</text>
</g>
<!-- ls&#45;&gt;ls_default -->
<g id="edge10" class="edge"><title>ls&#45;&gt;ls_default</title>
<path fill="none" stroke="black" d="M392.541,-294.52C372.567,-284.534 341.889,-269.194 316.679,-256.589"/>
<polygon fill="black" stroke="black" points="318.178,-253.426 307.668,-252.084 315.047,-259.687 318.178,-253.426"/>
</g>
<!-- ls_number -->
<g id="node12" class="node"><title>ls_number</title>
<ellipse fill="none" stroke="black" cx="413.5" cy="-234" rx="27" ry="18"/>
<text text-anchor="middle" x="413.5" y="-230.3" font-family="Microsoft Yahei" font-size="14.00">100</text>
</g>
<!-- ls&#45;&gt;ls_number -->
<g id="edge11" class="edge"><title>ls&#45;&gt;ls_number</title>
<path fill="none" stroke="black" d="M413.5,-287.697C413.5,-279.983 413.5,-270.712 413.5,-262.112"/>
<polygon fill="black" stroke="black" points="417,-262.104 413.5,-252.104 410,-262.104 417,-262.104"/>
</g>
<!-- del_post_simple -->
<g id="node14" class="node"><title>del_post_simple</title>
<ellipse fill="none" stroke="black" cx="518.5" cy="-234" rx="27" ry="18"/>
<text text-anchor="middle" x="518.5" y="-230.3" font-family="Microsoft Yahei" font-size="14.00">0</text>
</g>
<!-- del&#45;&gt;del_post_simple -->
<g id="edge13" class="edge"><title>del&#45;&gt;del_post_simple</title>
<path fill="none" stroke="black" d="M608.514,-292.807C591.165,-281.665 565.311,-265.062 545.757,-252.504"/>
<polygon fill="black" stroke="black" points="547.574,-249.512 537.269,-247.053 543.792,-255.402 547.574,-249.512"/>
</g>
<!-- del_post_complex -->
<g id="node15" class="node"><title>del_post_complex</title>
<ellipse fill="none" stroke="black" cx="627.5" cy="-234" rx="48.1917" ry="18"/>
<text text-anchor="middle" x="627.5" y="-230.3" font-family="Microsoft Yahei" font-size="14.00">2343434</text>
</g>
<!-- del&#45;&gt;del_post_complex -->
<g id="edge14" class="edge"><title>del&#45;&gt;del_post_complex</title>
<path fill="none" stroke="black" d="M627.5,-287.697C627.5,-279.983 627.5,-270.712 627.5,-262.112"/>
<polygon fill="black" stroke="black" points="631,-262.104 627.5,-252.104 624,-262.104 631,-262.104"/>
</g>
<!-- get_simple -->
<g id="node18" class="node"><title>get_simple</title>
<ellipse fill="none" stroke="black" cx="785.5" cy="-234" rx="27" ry="18"/>
<text text-anchor="middle" x="785.5" y="-230.3" font-family="Microsoft Yahei" font-size="14.00">3</text>
</g>
<!-- get&#45;&gt;get_simple -->
<g id="edge17" class="edge"><title>get&#45;&gt;get_simple</title>
<path fill="none" stroke="black" d="M856.533,-291.503C843.423,-281.075 825.086,-266.489 810.327,-254.749"/>
<polygon fill="black" stroke="black" points="812.122,-251.704 802.117,-248.218 807.764,-257.182 812.122,-251.704"/>
</g>
<!-- get_complex -->
<g id="node19" class="node"><title>get_complex</title>
<ellipse fill="none" stroke="black" cx="873.5" cy="-234" rx="42.7926" ry="18"/>
<text text-anchor="middle" x="873.5" y="-230.3" font-family="Microsoft Yahei" font-size="14.00">123343</text>
</g>
<!-- get&#45;&gt;get_complex -->
<g id="edge18" class="edge"><title>get&#45;&gt;get_complex</title>
<path fill="none" stroke="black" d="M873.5,-287.697C873.5,-279.983 873.5,-270.712 873.5,-262.112"/>
<polygon fill="black" stroke="black" points="877,-262.104 873.5,-252.104 870,-262.104 877,-262.104"/>
</g>
<!-- edit_postid -->
<g id="node22" class="node"><title>edit_postid</title>
<ellipse fill="none" stroke="black" cx="1002.5" cy="-234" rx="68.4888" ry="18"/>
<text text-anchor="middle" x="1002.5" y="-230.3" font-family="Microsoft Yahei" font-size="14.00">0(表示postid)</text>
</g>
<!-- edit&#45;&gt;edit_postid -->
<g id="edge21" class="edge"><title>edit&#45;&gt;edit_postid</title>
<path fill="none" stroke="black" d="M1002.5,-287.697C1002.5,-279.983 1002.5,-270.712 1002.5,-262.112"/>
<polygon fill="black" stroke="black" points="1006,-262.104 1002.5,-252.104 999,-262.104 1006,-262.104"/>
</g>
<!-- load_simple -->
<g id="node25" class="node"><title>load_simple</title>
<polygon fill="none" stroke="black" points="1282,-252 1089,-252 1089,-216 1282,-216 1282,-252"/>
<text text-anchor="middle" x="1185.5" y="-230.3" font-family="Microsoft Yahei" font-size="14.00">增量更新本地博客列表[fast]</text>
</g>
<!-- load&#45;&gt;load_simple -->
<g id="edge24" class="edge"><title>load&#45;&gt;load_simple</title>
<path fill="none" stroke="black" d="M1185.5,-287.697C1185.5,-279.983 1185.5,-270.712 1185.5,-262.112"/>
<polygon fill="black" stroke="black" points="1189,-262.104 1185.5,-252.104 1182,-262.104 1189,-262.104"/>
</g>
<!-- load_full -->
<g id="node26" class="node"><title>load_full</title>
<ellipse fill="none" stroke="black" cx="1352.5" cy="-234" rx="52.7911" ry="18"/>
<text text-anchor="middle" x="1352.5" y="-230.3" font-family="Microsoft Yahei" font-size="14.00">complete</text>
</g>
<!-- load&#45;&gt;load_full -->
<g id="edge25" class="edge"><title>load&#45;&gt;load_full</title>
<path fill="none" stroke="black" d="M1209.78,-294.821C1236.26,-283.722 1279.11,-265.761 1310.96,-252.412"/>
<polygon fill="black" stroke="black" points="1312.59,-255.523 1320.46,-248.43 1309.88,-249.068 1312.59,-255.523"/>
</g>
<!-- media_file -->
<g id="node30" class="node"><title>media_file</title>
<ellipse fill="none" stroke="black" cx="1473.5" cy="-234" rx="50.0912" ry="18"/>
<text text-anchor="middle" x="1473.5" y="-230.3" font-family="Microsoft Yahei" font-size="14.00">haha.jpg</text>
</g>
<!-- media&#45;&gt;media_file -->
<g id="edge29" class="edge"><title>media&#45;&gt;media_file</title>
<path fill="none" stroke="black" d="M1329.52,-293.597C1357.38,-282.257 1400.45,-264.731 1432.22,-251.798"/>
<polygon fill="black" stroke="black" points="1433.75,-254.955 1441.69,-247.944 1431.11,-248.472 1433.75,-254.955"/>
</g>
<!-- userid -->
<g id="node33" class="node"><title>userid</title>
<ellipse fill="none" stroke="black" cx="1579.5" cy="-234" rx="38.1938" ry="18"/>
<text text-anchor="middle" x="1579.5" y="-230.3" font-family="Microsoft Yahei" font-size="14.00">userid</text>
</g>
<!-- config&#45;&gt;userid -->
<g id="edge31" class="edge"><title>config&#45;&gt;userid</title>
<path fill="none" stroke="black" d="M1478.31,-291.669C1497.77,-280.77 1525.48,-265.25 1546.99,-253.207"/>
<polygon fill="black" stroke="black" points="1548.77,-256.221 1555.78,-248.282 1545.35,-250.114 1548.77,-256.221"/>
</g>
<!-- help_desc -->
<g id="node36" class="node"><title>help_desc</title>
<polygon fill="none" stroke="black" points="1737.5,-252 1635.5,-252 1635.5,-216 1737.5,-216 1737.5,-252"/>
<text text-anchor="middle" x="1686.5" y="-230.3" font-family="Microsoft Yahei" font-size="14.00">查看系统帮助</text>
</g>
<!-- help&#45;&gt;help_desc -->
<g id="edge35" class="edge"><title>help&#45;&gt;help_desc</title>
<path fill="none" stroke="black" d="M1664.37,-288.411C1667.67,-280.454 1671.7,-270.722 1675.42,-261.756"/>
<polygon fill="black" stroke="black" points="1678.68,-263.025 1679.27,-252.447 1672.21,-260.346 1678.68,-263.025"/>
</g>
<!-- ls_number_desc -->
<g id="node13" class="node"><title>ls_number_desc</title>
<polygon fill="none" stroke="black" points="352,-180 211,-180 211,-144 352,-144 352,-180"/>
<text text-anchor="middle" x="281.5" y="-158.3" font-family="Microsoft Yahei" font-size="14.00">列出100条博客记录</text>
</g>
<!-- ls_number&#45;&gt;ls_number_desc -->
<g id="edge12" class="edge"><title>ls_number&#45;&gt;ls_number_desc</title>
<path fill="none" stroke="black" d="M392.875,-222.063C374.183,-212.15 346.081,-197.247 322.782,-184.892"/>
<polygon fill="black" stroke="black" points="324.265,-181.717 313.791,-180.124 320.986,-187.901 324.265,-181.717"/>
</g>
<!-- del_post_simple_desc -->
<g id="node16" class="node"><title>del_post_simple_desc</title>
<polygon fill="none" stroke="black" points="523,-180 370,-180 370,-144 523,-144 523,-180"/>
<text text-anchor="middle" x="446.5" y="-158.3" font-family="Microsoft Yahei" font-size="14.00">删除最近的第0条博客</text>
</g>
<!-- del_post_simple&#45;&gt;del_post_simple_desc -->
<g id="edge15" class="edge"><title>del_post_simple&#45;&gt;del_post_simple_desc</title>
<path fill="none" stroke="black" d="M503.93,-218.834C494.582,-209.746 482.202,-197.71 471.331,-187.141"/>
<polygon fill="black" stroke="black" points="473.711,-184.574 464.102,-180.113 468.832,-189.593 473.711,-184.574"/>
</g>
<!-- del_post_complex_desc -->
<g id="node17" class="node"><title>del_post_complex_desc</title>
<polygon fill="none" stroke="black" points="713.5,-180 541.5,-180 541.5,-144 713.5,-144 713.5,-180"/>
<text text-anchor="middle" x="627.5" y="-158.3" font-family="Microsoft Yahei" font-size="14.00">删除id为2343434的博客</text>
</g>
<!-- del_post_complex&#45;&gt;del_post_complex_desc -->
<g id="edge16" class="edge"><title>del_post_complex&#45;&gt;del_post_complex_desc</title>
<path fill="none" stroke="black" d="M627.5,-215.697C627.5,-207.983 627.5,-198.712 627.5,-190.112"/>
<polygon fill="black" stroke="black" points="631,-190.104 627.5,-180.104 624,-190.104 631,-190.104"/>
</g>
<!-- get_simple_desc -->
<g id="node20" class="node"><title>get_simple_desc</title>
<polygon fill="none" stroke="black" points="885,-180 732,-180 732,-144 885,-144 885,-180"/>
<text text-anchor="middle" x="808.5" y="-158.3" font-family="Microsoft Yahei" font-size="14.00">获取最近的第3条博客</text>
</g>
<!-- get_simple&#45;&gt;get_simple_desc -->
<g id="edge19" class="edge"><title>get_simple&#45;&gt;get_simple_desc</title>
<path fill="none" stroke="black" d="M791.068,-216.055C793.656,-208.176 796.797,-198.617 799.696,-189.794"/>
<polygon fill="black" stroke="black" points="803.027,-190.868 802.824,-180.275 796.377,-188.683 803.027,-190.868"/>
</g>
<!-- get_complex_desc -->
<g id="node21" class="node"><title>get_complex_desc</title>
<polygon fill="none" stroke="black" points="1067.5,-180 903.5,-180 903.5,-144 1067.5,-144 1067.5,-180"/>
<text text-anchor="middle" x="985.5" y="-158.3" font-family="Microsoft Yahei" font-size="14.00">获取id为123343的博客</text>
</g>
<!-- get_complex&#45;&gt;get_complex_desc -->
<g id="edge20" class="edge"><title>get_complex&#45;&gt;get_complex_desc</title>
<path fill="none" stroke="black" d="M896.435,-218.666C911.695,-209.128 932.057,-196.402 949.461,-185.524"/>
<polygon fill="black" stroke="black" points="951.624,-188.3 958.249,-180.032 947.914,-182.364 951.624,-188.3"/>
</g>
<!-- edit_file -->
<g id="node23" class="node"><title>edit_file</title>
<ellipse fill="none" stroke="black" cx="1132.5" cy="-162" rx="47.3916" ry="18"/>
<text text-anchor="middle" x="1132.5" y="-158.3" font-family="Microsoft Yahei" font-size="14.00">haha.txt</text>
</g>
<!-- edit_postid&#45;&gt;edit_file -->
<g id="edge22" class="edge"><title>edit_postid&#45;&gt;edit_file</title>
<path fill="none" stroke="black" d="M1031.03,-217.638C1050.56,-207.121 1076.59,-193.106 1097.39,-181.903"/>
<polygon fill="black" stroke="black" points="1099.1,-184.958 1106.25,-177.135 1095.78,-178.795 1099.1,-184.958"/>
</g>
<!-- edit_simple_desc -->
<g id="node24" class="node"><title>edit_simple_desc</title>
<polygon fill="none" stroke="black" points="1272.5,-108 992.5,-108 992.5,-72 1272.5,-72 1272.5,-108"/>
<text text-anchor="middle" x="1132.5" y="-86.3" font-family="Microsoft Yahei" font-size="14.00">编辑最近第0条博客，使其内容为haha.txt</text>
</g>
<!-- edit_file&#45;&gt;edit_simple_desc -->
<g id="edge23" class="edge"><title>edit_file&#45;&gt;edit_simple_desc</title>
<path fill="none" stroke="black" d="M1132.5,-143.697C1132.5,-135.983 1132.5,-126.712 1132.5,-118.112"/>
<polygon fill="black" stroke="black" points="1136,-118.104 1132.5,-108.104 1129,-118.104 1136,-118.104"/>
</g>
<!-- load_full_desc -->
<g id="node27" class="node"><title>load_full_desc</title>
<polygon fill="none" stroke="black" points="1419,-180 1220,-180 1220,-144 1419,-144 1419,-180"/>
<text text-anchor="middle" x="1319.5" y="-158.3" font-family="Microsoft Yahei" font-size="14.00">彻底更新本地博客列表[slow]</text>
</g>
<!-- load_full&#45;&gt;load_full_desc -->
<g id="edge26" class="edge"><title>load_full&#45;&gt;load_full_desc</title>
<path fill="none" stroke="black" d="M1344.51,-216.055C1340.76,-208.091 1336.19,-198.411 1332,-189.51"/>
<polygon fill="black" stroke="black" points="1335.07,-187.828 1327.64,-180.275 1328.74,-190.813 1335.07,-187.828"/>
</g>
<!-- new_post_label -->
<g id="node29" class="node"><title>new_post_label</title>
<polygon fill="none" stroke="black" points="193,-180 0,-180 0,-144 193,-144 193,-180"/>
<text text-anchor="middle" x="96.5" y="-158.3" font-family="Microsoft Yahei" font-size="14.00">新建一篇题目为haha的博客</text>
</g>
<!-- new_post&#45;&gt;new_post_label -->
<g id="edge28" class="edge"><title>new_post&#45;&gt;new_post_label</title>
<path fill="none" stroke="black" d="M102.522,-215.697C101.641,-207.983 100.581,-198.712 99.5986,-190.112"/>
<polygon fill="black" stroke="black" points="103.068,-189.642 98.4548,-180.104 96.113,-190.437 103.068,-189.642"/>
</g>
<!-- media_label -->
<g id="node31" class="node"><title>media_label</title>
<polygon fill="none" stroke="black" points="1510,-180 1437,-180 1437,-144 1510,-144 1510,-180"/>
<text text-anchor="middle" x="1473.5" y="-158.3" font-family="Microsoft Yahei" font-size="14.00">上传图片</text>
</g>
<!-- media_file&#45;&gt;media_label -->
<g id="edge30" class="edge"><title>media_file&#45;&gt;media_label</title>
<path fill="none" stroke="black" d="M1473.5,-215.697C1473.5,-207.983 1473.5,-198.712 1473.5,-190.112"/>
<polygon fill="black" stroke="black" points="1477,-190.104 1473.5,-180.104 1470,-190.104 1477,-190.104"/>
</g>
<!-- config_desc -->
<g id="node32" class="node"><title>config_desc</title>
<polygon fill="none" stroke="black" points="1691.5,-36 1475.5,-36 1475.5,-0 1691.5,-0 1691.5,-36"/>
<text text-anchor="middle" x="1583.5" y="-14.3" font-family="Microsoft Yahei" font-size="14.00">全局设置用户（只需设置一次）</text>
</g>
<!-- username -->
<g id="node34" class="node"><title>username</title>
<ellipse fill="none" stroke="black" cx="1583.5" cy="-162" rx="55.4913" ry="18"/>
<text text-anchor="middle" x="1583.5" y="-158.3" font-family="Microsoft Yahei" font-size="14.00">username</text>
</g>
<!-- userid&#45;&gt;username -->
<g id="edge32" class="edge"><title>userid&#45;&gt;username</title>
<path fill="none" stroke="black" d="M1580.49,-215.697C1580.93,-207.983 1581.46,-198.712 1581.95,-190.112"/>
<polygon fill="black" stroke="black" points="1585.45,-190.288 1582.52,-180.104 1578.46,-189.888 1585.45,-190.288"/>
</g>
<!-- password -->
<g id="node35" class="node"><title>password</title>
<ellipse fill="none" stroke="black" cx="1583.5" cy="-90" rx="53.0913" ry="18"/>
<text text-anchor="middle" x="1583.5" y="-86.3" font-family="Microsoft Yahei" font-size="14.00">password</text>
</g>
<!-- username&#45;&gt;password -->
<g id="edge33" class="edge"><title>username&#45;&gt;password</title>
<path fill="none" stroke="black" d="M1583.5,-143.697C1583.5,-135.983 1583.5,-126.712 1583.5,-118.112"/>
<polygon fill="black" stroke="black" points="1587,-118.104 1583.5,-108.104 1580,-118.104 1587,-118.104"/>
</g>
<!-- password&#45;&gt;config_desc -->
<g id="edge34" class="edge"><title>password&#45;&gt;config_desc</title>
<path fill="none" stroke="black" d="M1583.5,-71.6966C1583.5,-63.9827 1583.5,-54.7125 1583.5,-46.1124"/>
<polygon fill="black" stroke="black" points="1587,-46.1043 1583.5,-36.1043 1580,-46.1044 1587,-46.1043"/>
</g>
</g>
</svg>
